<svg width="47" height="47" viewBox="0 0 47 47" fill="none" xmlns="http://www.w3.org/2000/svg">
<path fill-rule="evenodd" clip-rule="evenodd" d="M19.5833 5.875H27.4166C29.5797 5.875 31.3333 7.62855 31.3333 9.79167V11.75H39.1666C41.3297 11.75 43.0833 13.5036 43.0833 15.6667V37.2083C43.0833 39.3714 41.3297 41.125 39.1666 41.125H7.83329C5.67018 41.125 3.91663 39.3714 3.91663 37.2083V15.6667C3.91663 13.5036 5.67018 11.75 7.83329 11.75H15.6666V9.79167C15.6666 7.62855 17.4202 5.875 19.5833 5.875ZM7.83329 15.6667H15.6666H31.3333H39.1666V25.4583H25.4583H21.5416H7.83329V15.6667ZM7.83329 37.2083V29.375H21.5416V31.3333H25.4583V29.375H39.1666V37.2083H7.83329ZM27.4166 9.79167V11.75H19.5833V9.79167H27.4166Z" fill="black"/>
</svg>
