<svg width="47" height="47" viewBox="0 0 47 47" fill="none" xmlns="http://www.w3.org/2000/svg">
<path fill-rule="evenodd" clip-rule="evenodd" d="M13.7083 15.6668V22.521L5.875 28.396V39.1668L13.7083 39.1668C13.7083 41.3299 15.4619 43.0835 17.625 43.0835H21.5417V45.0418H25.4583V43.0835H29.375C31.5381 43.0835 33.2917 41.3299 33.2917 39.1668L41.125 39.1668V28.396L33.2917 22.521V15.6668C33.2917 9.48618 29.5443 1.9585 23.5 1.9585C17.4557 1.9585 13.7083 9.48618 13.7083 15.6668ZM25.4583 39.1668H29.375V19.5835V15.6668C29.375 11.3727 26.6383 5.87516 23.5 5.87516C20.3617 5.87516 17.625 11.3727 17.625 15.6668V19.5835V39.1668H21.5417V27.4168H25.4583V39.1668ZM9.79167 30.3543L13.7083 27.4168V35.2502H9.79167V30.3543ZM33.2917 35.2502V27.4168L37.2083 30.3543V35.2502H33.2917ZM23.5 21.5418C21.3369 21.5418 19.5833 19.7883 19.5833 17.6252C19.5833 15.462 21.3369 13.7085 23.5 13.7085C25.6631 13.7085 27.4167 15.462 27.4167 17.6252C27.4167 19.7883 25.6631 21.5418 23.5 21.5418Z" fill="black"/>
</svg>
