<svg width="47" height="47" viewBox="0 0 47 47" fill="none" xmlns="http://www.w3.org/2000/svg">
<path fill-rule="evenodd" clip-rule="evenodd" d="M37.2084 9.79167C39.3715 9.79167 41.125 11.5452 41.125 13.7083L41.125 15.6667C43.2882 15.6667 45.0417 17.4202 45.0417 19.5833L44.9951 20.0082L41.1172 37.4587C40.988 39.5052 39.2874 41.125 37.2084 41.125H5.87504C3.71193 41.125 1.95837 39.3714 1.95837 37.2083V9.79167C1.95837 7.62855 3.71193 5.875 5.87504 5.875H17.625C19.8184 5.875 21.2145 6.80609 22.6168 8.57525C22.6556 8.62418 22.75 8.74592 22.8547 8.88078L22.8549 8.88111C23.0027 9.07155 23.1707 9.28802 23.2307 9.36244C23.2914 9.43765 23.3426 9.49987 23.3849 9.5513L23.3849 9.5514C23.5572 9.76088 23.5821 9.79124 23.5035 9.79167H37.2084ZM37.2084 13.7083V15.6667H9.79171C7.50711 15.6667 6.48252 16.8837 5.93208 19.1141L5.87504 19.3708V9.79167H17.625C18.3775 9.79167 18.8138 10.0826 19.5473 11.0081C19.5704 11.0372 19.6365 11.1224 19.7188 11.2285L19.7188 11.2286L19.7191 11.2288C19.8765 11.4317 20.0931 11.711 20.1823 11.8216C21.1671 13.0423 22.0832 13.7008 23.4896 13.7083L37.2084 13.7083ZM37.2084 37.2083H5.92281L9.74507 20.0082C9.79155 19.8209 9.83221 19.6804 9.86281 19.5833H41.0773L37.255 36.7835L37.2084 37.2083Z" fill="black"/>
</svg>
