<svg width="47" height="47" viewBox="0 0 47 47" fill="none" xmlns="http://www.w3.org/2000/svg">
<path fill-rule="evenodd" clip-rule="evenodd" d="M15.6666 11.7498H11.75V9.7915H7.83329V15.6665H39.1666V9.7915H35.25V11.7498H31.3333V9.7915H15.6666V11.7498ZM39.1666 19.5832H7.83329V39.1665H39.1666V19.5832ZM31.3333 5.87484H15.6666V3.9165H11.75V5.87484H7.83329C5.67018 5.87484 3.91663 7.62839 3.91663 9.7915V39.1665C3.91663 41.3296 5.67018 43.0832 7.83329 43.0832H39.1666C41.3297 43.0832 43.0833 41.3296 43.0833 39.1665V9.7915C43.0833 7.62839 41.3297 5.87484 39.1666 5.87484H35.25V3.9165H31.3333V5.87484ZM13.7083 27.4165V23.4998H17.625V27.4165H13.7083ZM21.5416 27.4165H25.4583V23.4998H21.5416V27.4165ZM33.2916 27.4165H29.375V23.4998H33.2916V27.4165ZM13.7083 31.3332V35.2498H17.625V31.3332H13.7083ZM25.4583 35.2498H21.5416V31.3332H25.4583V35.2498Z" fill="black"/>
</svg>
