<svg width="47" height="47" viewBox="0 0 47 47" fill="none" xmlns="http://www.w3.org/2000/svg">
<path fill-rule="evenodd" clip-rule="evenodd" d="M30.2573 2.74692C32.3372 2.15267 34.505 3.35701 35.0993 5.4369C35.1992 5.78682 35.25 6.14897 35.25 6.51289V9.79167H39.1666C41.3297 9.79167 43.0833 11.5452 43.0833 13.7083V37.2083C43.0833 39.3714 41.3297 41.125 39.1666 41.125H7.83329C5.67018 41.125 3.91663 39.3714 3.91663 37.2083H3.96892C3.93416 36.9977 3.91663 36.7844 3.91663 36.5704V13.2272C3.91663 11.4785 5.07587 9.94162 6.7573 9.46121L30.2573 2.74692ZM19.8576 37.2083H39.1666V21.5417H35.25V29.8562C35.25 31.6049 34.0907 33.1417 32.4093 33.6221L19.8576 37.2083ZM35.25 13.7083H39.1666V17.625H35.25V13.7083ZM7.83329 13.2271V36.5704L31.3333 29.8561V6.51284L7.83329 13.2271ZM27.4166 17.625C27.4166 18.7066 26.5399 19.5833 25.4583 19.5833C24.3767 19.5833 23.5 18.7066 23.5 17.625C23.5 16.5434 24.3767 15.6667 25.4583 15.6667C26.5399 15.6667 27.4166 16.5434 27.4166 17.625Z" fill="black"/>
</svg>
