<svg width="47" height="47" viewBox="0 0 47 47" fill="none" xmlns="http://www.w3.org/2000/svg">
<path fill-rule="evenodd" clip-rule="evenodd" d="M21.8927 19.6007C18.3804 19.2086 13.8512 20.775 10.7251 23.9067C6.82168 27.8171 6.94969 32.6767 10.6272 36.3607C14.3048 40.0448 19.1557 40.1731 23.0591 36.2627C26.1455 33.1708 27.7088 28.709 27.3714 25.21C27.2183 23.622 26.6736 22.2323 25.7021 21.259C24.7582 20.3134 23.4218 19.7715 21.8927 19.6007ZM29.7295 20.0733L33.2807 16.5158L34.6151 17.4015C35.7684 18.1669 37.3188 18.0193 38.3109 17.0255C39.4581 15.8763 39.4581 14.013 38.3109 12.8638C37.8537 12.4058 37.2759 12.1204 36.6509 12.0314L35.1945 11.8241L34.9876 10.3652C34.8988 9.73907 34.6139 9.16021 34.1567 8.70217C33.0095 7.55297 31.1496 7.55297 30.0024 8.70217C29.0103 9.69605 28.8631 11.2493 29.6271 12.4045L30.5112 13.7414L26.9767 17.2822C27.5127 17.627 28.013 18.0275 28.4705 18.4858C28.9536 18.9698 29.3726 19.5018 29.7295 20.0733ZM22.9334 15.7838L25.622 13.0904C24.753 10.6488 25.3198 7.8443 27.2329 5.92774C29.9096 3.24626 34.2495 3.24626 36.9262 5.92774C37.6558 6.65862 38.2001 7.52928 38.5366 8.47608C39.4817 8.81321 40.3508 9.3585 41.0804 10.0894C43.7571 12.7709 43.7571 17.1184 41.0804 19.7999C39.1673 21.7165 36.3678 22.2843 33.9305 21.4137L31.1876 24.1615C31.9183 29.0535 29.866 34.9841 25.8202 39.0371C20.3548 44.5123 13.0314 44.3187 7.85742 39.1355C2.6834 33.9522 2.49015 26.6159 7.95558 21.1407C12.037 17.0521 18.0258 14.9958 22.9334 15.7838Z" fill="black"/>
</svg>
