<svg width="47" height="47" viewBox="0 0 47 47" fill="none" xmlns="http://www.w3.org/2000/svg">
<path fill-rule="evenodd" clip-rule="evenodd" d="M36.535 40.9235L40.877 36.5815L39.3478 31.026L40.014 29.4349L45.0417 26.5979V20.4578L40.0283 17.609L39.3732 16.0206L40.9216 10.4623L36.5766 6.12354L31.0206 7.65231L29.433 6.98667L26.5958 1.9585H20.4557L17.6069 6.97191L16.0189 7.62682L10.4614 6.0765L6.12317 10.4148L7.65219 15.9717L6.98654 17.5593L1.95837 20.3965V26.5348L6.96728 29.39L7.62289 30.9797L6.07473 36.5371L10.4146 40.877L15.9716 39.348L17.5593 40.0137L20.3966 45.0399H26.5351L29.3882 40.0308L30.9776 39.3753L36.535 40.9235ZM36.9198 26.6837L35.2125 30.7612L36.4959 35.4236L35.3828 36.5367L30.7303 35.2406L26.6509 36.9231L24.2586 41.1232H22.6832L20.3107 36.9204L16.2377 35.2126L11.5727 36.4962L10.4615 35.3849L11.7576 30.7324L10.0753 26.6534L5.87503 24.2591V22.6836L10.0798 20.311L11.7876 16.2378L10.504 11.5729L11.613 10.4639L16.2655 11.7618L20.3462 10.0788L22.7349 5.87517H24.3087L26.6813 10.0799L30.7545 11.7878L35.4203 10.5039L36.5344 11.6163L35.2385 16.268L36.9214 20.3483L41.125 22.737V24.3108L36.9198 26.6837ZM23.5 31.3335C19.1738 31.3335 15.6667 27.8264 15.6667 23.5002C15.6667 19.1739 19.1738 15.6668 23.5 15.6668C27.8263 15.6668 31.3334 19.1739 31.3334 23.5002C31.3334 27.8264 27.8263 31.3335 23.5 31.3335ZM27.4167 23.5002C27.4167 25.6633 25.6632 27.4168 23.5 27.4168C21.3369 27.4168 19.5834 25.6633 19.5834 23.5002C19.5834 21.337 21.3369 19.5835 23.5 19.5835C25.6632 19.5835 27.4167 21.337 27.4167 23.5002Z" fill="black"/>
</svg>
