<svg width="47" height="47" viewBox="0 0 47 47" fill="none" xmlns="http://www.w3.org/2000/svg">
<path fill-rule="evenodd" clip-rule="evenodd" d="M43.0833 7.83317H41.125V27.4165C41.125 29.5796 39.3714 31.3332 37.2083 31.3332H25.4583V34.141L34.2992 39.4456L32.2841 42.8041L25.4583 38.7086V43.0832H21.5416V38.7086L14.7158 42.8041L12.7007 39.4456L21.5416 34.141V31.3332H9.79163C7.62851 31.3332 5.87496 29.5796 5.87496 27.4165V7.83317H3.91663V3.9165H43.0833V7.83317ZM9.79163 7.83317V27.4165H37.2083V7.83317H9.79163ZM15.6666 23.4998H19.5833V15.6665H15.6666V23.4998ZM25.4583 23.4998H21.5416V11.7498H25.4583V23.4998ZM27.4166 23.4998H31.3333V17.6248H27.4166V23.4998Z" fill="black"/>
</svg>
